<svg width="32" height="32" fill="none" xmlns="http://www.w3.org/2000/svg"><rect width="32" height="32" rx="16" fill="#fff"/><path d="M22 16a6 6 0 11-12 0 6 6 0 0112 0z" fill="#E95D5D"/><path fill-rule="evenodd" clip-rule="evenodd" d="M16 4a.75.75 0 01.75.75v3a.75.75 0 11-1.5 0v-3A.75.75 0 0116 4zm0 19.5a.75.75 0 01.75.75v3a.75.75 0 11-1.5 0v-3a.75.75 0 01.75-.75zM28 16a.75.75 0 01-.75.75h-3a.75.75 0 110-1.5h3A.75.75 0 0128 16zM8.5 16a.75.75 0 01-.75.75h-3a.75.75 0 110-1.5h3a.75.75 0 01.75.75zm15.985-8.486a.75.75 0 010 1.061l-2.12 2.123a.75.75 0 11-1.061-1.063l2.121-2.12a.75.75 0 011.06 0zm-13.789 13.79a.75.75 0 010 1.06l-2.121 2.121a.75.75 0 01-1.06-1.06l2.12-2.121a.75.75 0 011.061 0zm13.79 3.181a.75.75 0 01-1.061 0l-2.121-2.12a.75.75 0 011.06-1.061l2.121 2.121a.75.75 0 010 1.06zm-13.79-13.787a.75.75 0 01-1.06 0L7.514 8.575a.75.75 0 111.06-1.06l2.121 2.12a.75.75 0 010 1.063z" fill="#E95D5D"/></svg>